<?xml version="1.0" standalone="no"?>
<!DOCTYPE svg PUBLIC "-//W3C//DTD SVG 1.1//EN" "http://www.w3.org/Graphics/SVG/1.1/DTD/svg11.dtd">
<svg width="100%" height="100%" viewBox="0 0 512 512" version="1.1" xmlns="http://www.w3.org/2000/svg" xmlns:xlink="http://www.w3.org/1999/xlink" xml:space="preserve" style="fill-rule:evenodd;clip-rule:evenodd;stroke-linejoin:round;stroke-miterlimit:1.41421;">
    <g transform="matrix(0.534642,0.845079,-0.845079,0.534642,256,256)">
        <g id="Background">
            <circle cx="0" cy="0" r="202.725" style="fill:white;fill-opacity:0.682353;"/>
        </g>
    </g>
    <g id="Symbol">
        <path id="Circle" d="M256,48C141.1,48 48,141.1 48,256C48,370.9 141.1,464 256,464C370.9,464 464,370.9 464,256C464,141.1 370.9,48 256,48ZM256,446.7C150.9,446.7 65.3,361.2 65.3,256C65.3,150.8 150.9,65.3 256,65.3C361.1,65.3 446.7,150.9 446.7,256C446.7,361.1 361.1,446.7 256,446.7Z" style="fill:rgb(0,118,255);fill-rule:nonzero;"/>
        <path id="Plus" d="M264.1,128L247.3,128L247.3,247.9L128,247.9L128,264.7L247.3,264.7L247.3,384L264.1,384L264.1,264.7L384,264.7L384,247.9L264.1,247.9L264.1,128Z" style="fill:rgb(0,118,255);fill-rule:nonzero;"/>
    </g>
</svg>
